<svg xmlns="http://www.w3.org/2000/svg" viewBox="0 0 64 64" role="img" aria-label="AquaTrip">
  <title>AquaTrip</title>
  <defs>
    <linearGradient id="lente" x1="14" y1="14" x2="50" y2="46" gradientUnits="userSpaceOnUse">
      <stop offset="0" stop-color="#9eeef2"/>
      <stop offset=".55" stop-color="#2fa3cf"/>
      <stop offset="1" stop-color="#0a5f8e"/>
    </linearGradient>
    <linearGradient id="fundo" x1="0" y1="30" x2="0" y2="48" gradientUnits="userSpaceOnUse">
      <stop offset="0" stop-color="#0d4f78"/>
      <stop offset="1" stop-color="#062238"/>
    </linearGradient>
    <linearGradient id="nariz" x1="32" y1="31" x2="32" y2="43" gradientUnits="userSpaceOnUse">
      <stop offset="0" stop-color="#f2f8fa"/>
      <stop offset="1" stop-color="#9fb5c1"/>
    </linearGradient>
    <clipPath id="recorte">
      <path d="M13 21.5C13 17 16 15 21 15c5 0 8 1.5 11 1.5S38 15 43 15c5 0 8 2 8 6.5v12c0 6.5-3.5 11.5-8.5 11.5-3 0-4.2-2.5-4.9-5L36 34c-1-3.5-7-3.5-8 0l-1.6 6c-.7 2.5-1.9 5-4.9 5-5 0-8.5-5-8.5-11.5z"/>
    </clipPath>
  </defs>
  <path fill="#062238" d="M7 20.5C7 12.8 12.6 9 20 9c6 0 9 2 12 2s6-2 12-2c7.4 0 13 3.8 13 11.5V34c0 9-5.6 17-14 17-5.6 0-7.8-4.4-8.8-8.6l-1.3-5c-.4-1.4-1.4-1.4-1.8 0l-1.3 5C28.8 46.6 26.6 51 21 51 12.6 51 7 43 7 34z"/>
  <g clip-path="url(#recorte)">
    <rect x="10" y="12" width="44" height="36" fill="url(#lente)"/>
    <path fill="url(#fundo)" opacity=".92" d="M10 31.5c4.4-2.6 8.8-2.6 13.2 0s8.8 2.6 13.2 0 8.8-2.6 13.2 0 4.4 2.6 4.4 2.6V48H10z"/>
    <path fill="none" stroke="#5ce1e6" stroke-width="1.3" stroke-linecap="round" d="M10 31.5c4.4-2.6 8.8-2.6 13.2 0s8.8 2.6 13.2 0 8.8-2.6 13.2 0"/>
    <path fill="none" stroke="#fff" stroke-opacity=".85" stroke-width="2.2" stroke-linecap="round" d="M17.2 22.4c1.2-2.3 3.6-3.4 7-3.4"/>
    <path fill="none" stroke="#fff" stroke-opacity=".55" stroke-width="2.2" stroke-linecap="round" d="M16.6 26.2v.01"/>
  </g>
  <path fill="url(#nariz)" d="M28.2 34.6c1-3.4 6.6-3.4 7.6 0l2 7.4c-2.8-1.3-8.8-1.3-11.6 0z"/>
</svg>
